PathFileType  4	(X/Y/Z) C:\Users\antoi\Documents\MyRepositories\mobilecap\ResultsAnalysis
DataRate	CameraRate	NumFrames	NumMarkers	Units	OrigDataRate	OrigDataStartFrame	OrigNumFrames
100.0	100.0	4	51	mm	100.0	181	240
Frame#	Time	r_knee			r_shank_antsup			r_ankle			r_calc			r_5meta			r_toe			L_knee			L_shank_antsup			L_ankle			L_calc			L_5meta			L_toe			r_sh2			r_sh3			r_sh4			L_sh2			L_sh3			r_thigh1			r_thigh2			r_thigh3			r_thigh4			r_thigh5			L_thigh1			L_thigh2			L_thigh3			L_thigh4			r.ASIS			r.PSIS			L.ASIS			L.PSIS			C7			R_Shoulder			L_Shoulder			R_Sternum			L_Sternum			R_humerus			R_elbow_med			R_elbow_lat			R_forearm			R_wrist_radius			R_wrist_ulna			L_humerus			L_elbow_med			L_elbow_lat			L_forearm			L_wrist_radius			L_wrist_ulna			R_HJC			L_HJC			R_HJC_reg			L_HJC_reg			
		X1	Y1	Z1	X2	Y2	Z2	X3	Y3	Z3	X4	Y4	Z4	X5	Y5	Z5	X6	Y6	Z6	X7	Y7	Z7	X8	Y8	Z8	X9	Y9	Z9	X10	Y10	Z10	X11	Y11	Z11	X12	Y12	Z12	X13	Y13	Z13	X14	Y14	Z14	X15	Y15	Z15	X16	Y16	Z16	X17	Y17	Z17	X18	Y18	Z18	X19	Y19	Z19	X20	Y20	Z20	X21	Y21	Z21	X22	Y22	Z22	X23	Y23	Z23	X24	Y24	Z24	X25	Y25	Z25	X26	Y26	Z26	X27	Y27	Z27	X28	Y28	Z28	X29	Y29	Z29	X30	Y30	Z30	X31	Y31	Z31	X32	Y32	Z32	X33	Y33	Z33	X34	Y34	Z34	X35	Y35	Z35	X36	Y36	Z36	X37	Y37	Z37	X38	Y38	Z38	X39	Y39	Z39	X40	Y40	Z40	X41	Y41	Z41	X42	Y42	Z42	X43	Y43	Z43	X44	Y44	Z44	X45	Y45	Z45	X46	Y46	Z46	X47	Y47	Z47	X48	Y48	Z48	X49	Y49	Z49	X50	Y50	Z50	X51	Y51	Z51	

181	1.80000000	-85.13346	499.91340	-377.42914	-52.49060	420.46411	-381.21668	-239.26105	133.72292	-358.73817	-320.87181	121.71178	-397.79288	-169.30960	52.76135	-316.41249	-107.81389	65.30848	-363.85810	-78.44096	479.14211	-827.48056	-64.29202	380.89267	-842.03569	-258.68298	139.36310	-837.45794	-340.88225	126.22503	-789.75058	-193.42554	50.34707	-885.08793	-141.38129	58.48304	-835.74797	-114.06679	325.72288	-351.13268	-121.47123	460.95385	-361.97071	-178.03007	364.17832	-349.02255	-139.04018	430.00332	-841.47938	-195.42671	321.14201	-852.44031	-168.95380	808.37106	-417.81999	-121.09187	705.93244	-397.78240	-220.94472	656.83609	-395.36492	-272.37732	760.50669	-416.96982	-169.93407	665.29533	-374.00621	-189.70297	729.36151	-838.59669	-111.35542	614.36511	-837.40002	-273.13289	670.47745	-780.50219	-192.22439	555.09929	-796.28757	-170.47944	901.87946	-498.82526	-351.54278	970.49574	-580.10023	-174.47388	866.39838	-747.26489	-357.32572	964.86792	-681.54324	-209.09772	1352.64033	-651.89249	-108.73112	1327.91417	-490.11388	-112.83549	1344.10016	-804.33332	-69.44013	1300.74427	-619.21229	-64.28588	1302.60377	-665.24432	-77.43597	1255.34433	-386.12236	-12.24792	1046.55706	-331.04943	-5.74572	1105.62623	-274.96275	62.55954	1188.99507	-362.25445	121.34453	1254.87457	-446.91712	154.60732	1244.62642	-443.53524	-87.46194	1299.39201	-903.15457	-42.42943	1089.87906	-1020.04960	-47.01077	1172.73366	-1055.81887	-3.40681	1217.89052	-961.84287	57.60250	1257.54253	-842.89041	84.46540	1269.59625	-865.63270	-263.16599	837.79422	-513.43525	-267.64790	814.76620	-718.57068	-253.76738	832.02477	-525.10659	-263.18237	822.86030	-690.23685	
182	1.81000000	-97.89884	511.80218	-379.51037	-64.44703	433.64443	-382.46976	-237.04404	137.77589	-356.39414	-317.18100	128.54197	-395.84329	-167.95039	53.72556	-315.61339	-106.16061	65.06297	-362.91878	-87.53399	490.89030	-828.61171	-72.13056	392.93368	-843.50207	-256.04134	142.62296	-838.51021	-337.14142	132.47897	-790.32492	-192.10442	51.39292	-885.10791	-139.75042	58.53583	-836.17010	-121.50354	336.66608	-350.99632	-135.38768	471.08549	-363.86788	-186.97770	371.87354	-349.84392	-149.01731	438.59373	-842.11238	-200.52818	328.08372	-853.80035	-164.14753	825.02555	-419.39715	-122.97864	720.59924	-399.03547	-225.18136	676.74438	-397.90994	-270.16556	783.07189	-420.14367	-174.04289	682.38831	-375.61356	-185.74071	746.51589	-838.82717	-114.13501	627.68977	-839.25221	-271.79050	692.92127	-781.37172	-197.44468	573.41584	-796.81003	-161.91243	926.23826	-500.30924	-343.81196	991.73281	-582.89196	-164.22389	891.02624	-749.85393	-349.21240	985.64986	-684.18892	-214.70510	1379.34810	-653.77850	-115.72447	1355.60913	-491.16210	-119.57544	1370.52279	-807.11095	-74.85014	1329.48518	-620.65449	-69.10659	1331.15043	-667.32537	-85.88413	1281.04783	-387.01812	-29.15129	1070.15124	-329.05197	-19.54786	1129.70683	-274.54560	56.14770	1205.06449	-362.89246	121.25495	1264.06157	-448.44800	153.78132	1251.86603	-443.44346	-93.12664	1323.46296	-905.06242	-57.32676	1108.95603	-1020.95203	-55.48374	1191.32046	-1055.96566	-9.14925	1233.49346	-962.91790	55.84990	1269.40604	-844.35698	83.18207	1279.47437	-866.26875	-253.27930	860.44124	-515.90459	-256.49683	837.56139	-721.07860	-243.91887	855.36668	-526.80800	-252.75605	845.40414	-692.61124	
183	1.82000000	-113.29126	525.02058	-382.61006	-78.67843	448.53918	-384.25867	-234.29866	142.81991	-353.48847	-312.23385	137.42397	-393.52053	-166.19507	55.24652	-314.53726	-104.25843	64.67230	-361.70372	-98.94251	504.41973	-829.83703	-81.93331	407.11380	-845.96714	-253.00907	146.49730	-840.24630	-332.37804	140.09477	-791.46088	-190.63797	52.46263	-885.26889	-137.80798	58.58857	-836.97629	-130.44922	349.25801	-351.14782	-151.65485	482.58836	-366.52108	-197.46578	380.53257	-351.24790	-161.21786	448.54369	-842.95339	-207.42272	335.40323	-854.64369	-160.11550	842.27015	-420.70079	-126.46371	736.56481	-400.58593	-230.39668	697.91867	-401.31841	-268.35894	806.76020	-423.75453	-179.31929	700.22569	-378.13521	-182.97212	765.29662	-839.81694	-118.42407	642.85461	-841.09459	-271.15192	716.91611	-782.06141	-204.05174	593.44490	-797.52622	-153.08350	952.22541	-501.49145	-335.70312	1013.65589	-585.76772	-153.62686	917.49173	-752.05993	-340.62931	1007.45031	-686.86729	-220.21877	1406.58549	-655.61559	-122.58900	1383.33087	-492.35168	-126.30242	1396.76161	-810.39358	-80.23677	1358.38751	-622.32065	-74.27516	1360.42446	-669.33980	-93.64457	1306.03502	-388.40735	-47.40691	1093.05331	-327.88097	-33.52923	1152.90550	-275.28824	50.16553	1219.28952	-363.40355	122.12855	1270.81391	-449.00617	153.44356	1256.21528	-442.47580	-98.62994	1346.39992	-907.31098	-72.29346	1126.50973	-1019.12671	-63.98446	1207.85718	-1054.68898	-14.65105	1246.84396	-963.29504	55.51901	1279.66508	-846.76752	83.36909	1286.74481	-867.06281	-242.82393	884.35514	-518.26883	-244.45906	861.74961	-723.49022	-233.37368	879.65002	-528.43536	-241.48441	869.43398	-694.88176	
184	1.83000000	-131.09726	539.90396	-386.86706	-95.24773	465.66573	-386.73671	-229.97582	149.56664	-349.88958	-304.48045	149.51059	-390.62595	-163.75575	57.07815	-313.45775	-101.68582	63.91042	-360.07851	-112.90547	519.89202	-830.93029	-94.12287	423.36974	-848.50890	-249.35908	151.50650	-842.81208	-326.08628	149.75387	-793.46861	-188.89447	53.97271	-885.92990	-135.50060	58.64201	-838.24532	-140.74926	364.04147	-351.50756	-170.26817	495.48594	-370.10740	-209.40819	390.47688	-353.20526	-175.89222	459.84925	-843.72941	-215.47079	344.08411	-855.71745	-156.68648	860.36137	-421.95883	-130.68984	752.97326	-402.65384	-236.39936	720.47905	-405.72088	-266.73894	831.65674	-427.97254	-185.70882	719.20545	-381.53777	-181.64553	786.03507	-841.13848	-124.17542	660.15716	-842.74731	-271.41096	742.30631	-782.10468	-211.89480	615.30150	-798.31773	-144.19536	979.80374	-502.81576	-327.47056	1035.94386	-588.40207	-142.86007	945.47499	-753.71216	-331.84446	1030.04291	-689.53984	-225.47776	1433.86693	-657.54362	-129.26120	1410.59892	-493.77652	-133.05212	1422.36370	-813.74107	-85.41567	1387.03639	-623.80584	-79.57341	1389.44914	-671.85321	-100.58976	1330.25482	-390.51464	-66.01074	1115.46545	-328.81756	-47.32311	1174.91778	-277.43773	44.52984	1231.62516	-363.97960	123.55426	1274.99255	-448.75663	153.25062	1257.90415	-440.74369	-103.89925	1367.81383	-909.61547	-86.40247	1142.73466	-1013.35714	-72.79024	1222.20596	-1051.66618	-19.95361	1258.04875	-962.61859	56.70894	1287.73899	-848.60892	85.02590	1291.97764	-868.11939	-231.84755	909.41159	-520.44312	-231.77356	887.07354	-725.70291	-222.13544	904.56906	-530.37452	-229.34705	894.84356	-697.07051	
